Force Plate Walk 3
version=1
nRows=38
nColumns=19
inDegrees=yes
endheader
time	ground_force1_vx	ground_force1_vy	ground_force1_vz	ground_force1_px	ground_force1_py	ground_force1_pz	ground_torque1_x	ground_torque1_y	ground_torque1_z	ground_force2_vx	ground_force2_vy	ground_force2_vz	ground_force2_px	ground_force2_py	ground_force2_pz	ground_torque2_x	ground_torque2_y	ground_torque2_z
5.145000	-73.642754	652.779419	18.086405	0.612579	0.000000	-0.220536	0.000016	-2.247202	-0.000014	-0.000000	-0.000000	0.000000	0.254000	0.000000	-0.232000	0.000000	0.000000	0.000000	
5.146000	-74.708939	653.498657	18.285753	0.612377	0.000000	-0.220197	0.000003	-2.160073	0.000040	-0.000000	-0.000000	0.000000	0.254000	0.000000	-0.232000	0.000000	0.000000	0.000000	
5.147000	-75.619301	654.560425	18.018101	0.612059	0.000000	-0.220404	0.000013	-2.158095	0.000047	-0.000000	-0.000000	0.000000	0.254000	0.000000	-0.232000	0.000000	0.000000	0.000000	
5.148000	-76.786652	654.219482	17.942532	0.611495	0.000000	-0.220178	0.000001	-2.242823	0.000011	-0.000000	-0.000000	0.000000	0.254000	0.000000	-0.232000	0.000000	0.000000	0.000000	
5.149000	-77.404915	655.964966	18.575769	0.611927	0.000000	-0.220453	0.000012	-2.138950	-0.000003	-0.000000	-0.000000	0.000000	0.254000	0.000000	-0.232000	0.000000	0.000000	0.000000	
5.150000	-79.015884	659.554382	18.503092	0.611983	0.000000	-0.220358	0.000003	-2.123455	0.000024	-0.000000	-0.000000	0.000000	0.254000	0.000000	-0.232000	0.000000	0.000000	0.000000	
5.151000	-79.572914	657.754272	18.235977	0.611058	0.000000	-0.220228	0.000011	-2.217143	0.000029	-0.000000	-0.000000	0.000000	0.254000	0.000000	-0.232000	0.000000	0.000000	0.000000	
5.152000	-80.544487	658.778748	18.334711	0.611190	0.000000	-0.220130	0.000012	-2.153395	-0.000006	-0.000000	-0.000000	0.000000	0.254000	0.000000	-0.232000	0.000000	0.000000	0.000000	
5.153000	-81.622169	661.274719	18.524885	0.611130	0.000000	-0.220109	0.000004	-2.119227	0.000057	-0.000000	-0.000000	0.000000	0.254000	0.000000	-0.232000	0.000000	0.000000	0.000000	
5.154000	-82.349586	660.221619	18.527332	0.610440	0.000000	-0.220146	0.000003	-1.954911	0.000017	-0.000000	-0.000000	0.000000	0.254000	0.000000	-0.232000	0.000000	0.000000	0.000000	
5.155000	-83.781120	661.589905	18.723074	0.610365	0.000000	-0.219879	0.000011	-1.993788	0.000014	-0.000000	-0.000000	0.000000	0.254000	0.000000	-0.232000	0.000000	0.000000	0.000000	
5.156000	-83.609886	663.400940	18.540567	0.610681	0.000000	-0.219868	0.000001	-2.008834	0.000006	-0.000000	-0.000000	0.000000	0.254000	0.000000	-0.232000	0.000000	0.000000	0.000000	
5.157000	-85.435890	665.182129	17.816631	0.610604	0.000000	-0.219838	0.000010	-2.250671	0.000049	-0.000000	-0.000000	0.000000	0.254000	0.000000	-0.232000	0.000000	0.000000	0.000000	
5.158000	-86.161819	665.903992	18.001366	0.610554	0.000000	-0.219951	0.000005	-2.116027	0.000024	-0.000000	-0.000000	0.000000	0.254000	0.000000	-0.232000	0.000000	0.000000	0.000000	
5.159000	-86.604057	665.875122	18.178139	0.610073	0.000000	-0.219831	0.000003	-2.025393	0.000023	-0.000000	-0.000000	0.000000	0.254000	0.000000	-0.232000	0.000000	0.000000	0.000000	
5.160000	-88.213425	666.560242	18.555387	0.609962	0.000000	-0.219876	-0.000001	-1.910078	0.000024	-0.000000	-0.000000	0.000000	0.254000	0.000000	-0.232000	0.000000	0.000000	0.000000	
5.161000	-89.207565	667.309937	18.031082	0.609395	0.000000	-0.219869	0.000006	-2.063228	-0.000012	-0.000000	-0.000000	0.000000	0.254000	0.000000	-0.232000	0.000000	0.000000	0.000000	
5.162000	-89.475632	669.430054	18.029291	0.609928	0.000000	-0.219688	0.000012	-1.970068	0.000002	-0.000000	-0.000000	0.000000	0.254000	0.000000	-0.232000	0.000000	0.000000	0.000000	
5.163000	-90.990639	669.094971	18.317316	0.609542	0.000000	-0.219996	0.000002	-1.894164	0.000037	-0.000000	-0.000000	0.000000	0.254000	0.000000	-0.232000	0.000000	0.000000	0.000000	
5.164000	-91.883430	669.436218	18.499325	0.609225	0.000000	-0.219772	0.000005	-1.818417	-0.000015	-0.000000	-0.000000	0.000000	0.254000	0.000000	-0.232000	0.000000	0.000000	0.000000	
5.165000	-92.505463	670.869568	18.246077	0.609581	0.000000	-0.219870	0.000007	-1.845141	0.000002	-0.000000	-0.000000	0.000000	0.254000	0.000000	-0.232000	0.000000	0.000000	0.000000	
5.166000	-93.589531	671.902222	18.069040	0.609137	0.000000	-0.219957	0.000016	-1.767775	0.000027	-0.000000	-0.000000	0.000000	0.254000	0.000000	-0.232000	0.000000	0.000000	0.000000	
5.167000	-94.480827	669.447327	17.725971	0.608561	0.000000	-0.219545	0.000005	-1.927415	-0.000012	-0.000000	-0.000000	0.000000	0.254000	0.000000	-0.232000	0.000000	0.000000	0.000000	
5.168000	-95.379150	672.954346	18.088350	0.608882	0.000000	-0.219480	0.000009	-1.751170	-0.000006	-0.000000	-0.000000	0.000000	0.254000	0.000000	-0.232000	0.000000	0.000000	0.000000	
5.169000	-96.265831	671.941833	18.280445	0.608759	0.000000	-0.219505	0.000014	-1.747335	0.000012	-0.000000	-0.000000	0.000000	0.254000	0.000000	-0.232000	0.000000	0.000000	0.000000	
5.170000	-97.253593	673.337769	18.290968	0.608744	0.000000	-0.219477	0.000008	-1.687754	0.000014	-0.000000	-0.000000	0.000000	0.254000	0.000000	-0.232000	0.000000	0.000000	0.000000	
5.171000	-98.420677	673.312622	17.948761	0.608275	0.000000	-0.219443	-0.000000	-1.701341	0.000015	-0.000000	-0.000000	0.000000	0.254000	0.000000	-0.232000	0.000000	0.000000	0.000000	
5.172000	-98.515221	673.996948	18.215588	0.608149	0.000000	-0.219221	0.000004	-1.694149	0.000030	-0.000000	-0.000000	0.000000	0.254000	0.000000	-0.232000	0.000000	0.000000	0.000000	
5.173000	-99.938789	672.226868	17.960155	0.607526	0.000000	-0.219201	0.000011	-1.639520	0.000002	-0.000000	-0.000000	0.000000	0.254000	0.000000	-0.232000	0.000000	0.000000	0.000000	
5.174000	-100.481865	674.396057	17.791792	0.608240	0.000000	-0.219364	0.000011	-1.598870	0.000001	-0.000000	-0.000000	0.000000	0.254000	0.000000	-0.232000	0.000000	0.000000	0.000000	
5.175000	-101.821739	675.805786	17.530533	0.607983	0.000000	-0.219463	0.000011	-1.644284	0.000021	-0.000000	-0.000000	0.000000	0.254000	0.000000	-0.232000	0.000000	0.000000	0.000000	
5.176000	-102.003052	673.635620	17.711992	0.607403	0.000000	-0.219575	0.000006	-1.457918	0.000002	-0.000000	-0.000000	0.000000	0.254000	0.000000	-0.232000	0.000000	0.000000	0.000000	
5.177000	-103.337120	674.371277	17.639032	0.607437	0.000000	-0.219377	0.000005	-1.453840	-0.000013	-0.000000	-0.000000	0.000000	0.254000	0.000000	-0.232000	0.000000	0.000000	0.000000	
5.178000	-104.229881	673.659851	17.650324	0.607275	0.000000	-0.219252	0.000006	-1.488145	0.000018	-0.000000	-0.000000	0.000000	0.254000	0.000000	-0.232000	0.000000	0.000000	0.000000	
5.179000	-104.957199	675.086365	17.649412	0.607068	0.000000	-0.219445	0.000007	-1.285051	-0.000006	-0.000000	-0.000000	0.000000	0.254000	0.000000	-0.232000	0.000000	0.000000	0.000000	
5.180000	-105.668152	674.005737	17.213226	0.606990	0.000000	-0.219233	0.000009	-1.346051	0.000043	-0.000000	-0.000000	0.000000	0.254000	0.000000	-0.232000	0.000000	0.000000	0.000000	
5.181000	-106.379021	673.968933	17.309036	0.606665	0.000000	-0.219060	0.000010	-1.386833	0.000000	-0.000000	-0.000000	0.000000	0.254000	0.000000	-0.232000	0.000000	0.000000	0.000000	
5.182000	-107.905746	672.228271	16.787027	0.606033	0.000000	-0.219168	0.000006	-1.331813	0.000002	-0.000000	-0.000000	0.000000	0.254000	0.000000	-0.232000	0.000000	0.000000	0.000000	
